<svg width="43" height="48" viewBox="0 0 43 48" fill="none" xmlns="http://www.w3.org/2000/svg">
<path d="M36.5923 2.8125C35.5681 2.8125 34.6079 3.08897 33.7798 3.56925V1.40625C33.7798 0.629625 33.1502 0 32.3736 0H9.87356C9.09684 0 8.46722 0.629625 8.46722 1.40625V3.58641C7.63256 3.09544 6.66141 2.8125 5.625 2.8125C2.52338 2.8125 0 5.33588 0 8.4375C0 10.8033 0.701063 13.0892 2.02734 15.0482C4.28522 18.3832 7.0695 19.2486 9.37341 20.1701C10.7018 23.4784 13.3883 26.1002 16.7393 27.3415L15.7024 33.9375H15.4986C13.1723 33.9375 11.2798 35.83 11.2798 38.1562V45.1875H9.87356C9.09694 45.1875 8.46731 45.8171 8.46731 46.5938C8.46731 47.3704 9.09694 48 9.87356 48H32.3736C33.1502 48 33.7798 47.3704 33.7798 46.5938C33.7798 45.8171 33.1502 45.1875 32.3736 45.1875H30.9673V38.1562C30.9673 35.83 29.0748 33.9375 26.7486 33.9375H26.5448L25.5079 27.3416C28.8638 26.0984 31.5533 23.4709 32.8797 20.1559C35.0561 19.2853 37.909 18.4174 40.1901 15.0482C41.5163 13.0892 42.2174 10.8032 42.2174 8.4375C42.2173 5.33588 39.6939 2.8125 36.5923 2.8125ZM8.45681 16.7744C5.028 15.4028 2.8125 12.1305 2.8125 8.4375C2.8125 6.88669 4.07419 5.625 5.625 5.625C7.17581 5.625 8.4375 6.88669 8.4375 8.4375C8.4375 8.53641 8.44791 8.63278 8.46731 8.72587V15.4688C8.46731 15.9207 8.49159 16.3671 8.53809 16.8069L8.45681 16.7744ZM28.1548 45.1875H14.0923V42.375H28.1548V45.1875ZM26.7486 36.75C27.524 36.75 28.1548 37.3808 28.1548 38.1562V39.5625H14.0923V38.1562C14.0923 37.3808 14.7232 36.75 15.4986 36.75C16.2615 36.75 24.9593 36.75 26.7486 36.75ZM18.5494 33.9375L19.4799 28.0184C20.0181 28.0885 20.5666 28.125 21.1236 28.125C21.6805 28.125 22.2291 28.0884 22.7672 28.0184L23.6978 33.9375H18.5494ZM30.9673 15.4688C30.9673 20.8966 26.5514 25.3125 21.1236 25.3125C15.6957 25.3125 11.2798 20.8966 11.2798 15.4688V8.4375H30.9673V15.4688ZM30.9673 5.625H11.2798V2.8125H30.9673V5.625ZM33.7604 16.7744L33.7104 16.7944C33.756 16.3586 33.7797 15.9164 33.7797 15.4688V8.4375C33.7798 6.88669 35.0415 5.625 36.5923 5.625C38.1431 5.625 39.4048 6.88669 39.4048 8.4375C39.4048 12.1305 37.1893 15.4029 33.7604 16.7744Z" fill="#262626"/>
</svg>
